<svg id="Layer_1" data-name="Layer 1" xmlns="http://www.w3.org/2000/svg" viewBox="0 0 24 24"><path d="M21.688,2.312a7.887,7.887,0,0,0-11.158,0L2.312,10.53A7.89,7.89,0,1,0,13.47,21.688l8.218-8.218a7.887,7.887,0,0,0,0-11.158Zm-2.121,9.037-8.218,8.218a4.89,4.89,0,1,1-6.916-6.916l8.218-8.218a4.89,4.89,0,1,1,6.916,6.916Zm-1.628-4.41,2.122,2.122-4,4-2.122-2.122.94-.939L14,9.121l-.939.94L10.939,7.939l4-4,2.122,2.122L16.121,7,17,7.879Zm-7,7,2.122,2.122L9.016,20.105,6.9,17.984,7.879,17,7,16.121l-.984.984L3.9,14.984l4.044-4.045,2.122,2.122L9.121,14l.879.879Z"/></svg>