<svg id="Layer_1" data-name="Layer 1" xmlns="http://www.w3.org/2000/svg" viewBox="0 0 24 24"><path d="M22.9,1.1a3.754,3.754,0,0,0-5.3,0L15.112,3.584a3.452,3.452,0,0,1-4.836.071L8.186,5.807l2.175,2.175L2.172,16.171a4,4,0,0,0-.854,4.39L0,21.879,2.121,24l1.318-1.318a4,4,0,0,0,4.389-.854l8.19-8.189,2.175,2.175,2.152-2.09a3.453,3.453,0,0,1,.071-4.837L22.9,6.4A3.754,3.754,0,0,0,22.9,1.1ZM5.707,19.707a1.023,1.023,0,0,1-1.414,0,1,1,0,0,1,0-1.414l8.189-8.19L13.9,11.518ZM20.781,4.28,18.294,6.766a6.487,6.487,0,0,0-1.75,3.157L14.077,7.456a6.487,6.487,0,0,0,3.157-1.75L19.72,3.219A.75.75,0,0,1,20.781,4.28Z"/></svg>