<svg id="Layer_1" data-name="Layer 1" xmlns="http://www.w3.org/2000/svg" viewBox="0 0 24 24"><path d="M20.682,3.561,18.44,1.319A4.526,4.526,0,0,0,15.258,0H5.5A3.5,3.5,0,0,0,2,3.5V24H22V6.743A4.474,4.474,0,0,0,20.682,3.561ZM5,21V3.5A.5.5,0,0,1,5.5,3H15V7h4V21Zm11-8H8V10h8Zm-2.132,2.023,2.848.946C16.347,17.1,15.177,19,13.135,19a3.683,3.683,0,0,1-2.275-.8,1.409,1.409,0,0,0-.308-.2,3.234,3.234,0,0,0-.8.825l-2.5-1.664C7.591,16.659,8.826,15,10.487,15a3.407,3.407,0,0,1,2.111.756c.3.217.354.244.537.244C13.339,16,13.721,15.45,13.868,15.023Z"/></svg>