<svg id="Layer_1" data-name="Layer 1" xmlns="http://www.w3.org/2000/svg" viewBox="0 0 24 24"><path d="M24,3.5A3.5,3.5,0,0,0,20.5,0H3.5A3.5,3.5,0,0,0,0,3.5v3a3.48,3.48,0,0,0,.635,2A3.48,3.48,0,0,0,0,10.5v3a3.48,3.48,0,0,0,.635,2A3.48,3.48,0,0,0,0,17.5V24H24V17.5a3.48,3.48,0,0,0-.635-2,3.48,3.48,0,0,0,.635-2v-3a3.48,3.48,0,0,0-.635-2A3.48,3.48,0,0,0,24,6.5ZM3,3.5A.5.5,0,0,1,3.5,3H5V5H8V3h2V5h3V3h7.5a.5.5,0,0,1,.5.5v3a.5.5,0,0,1-.5.5H3.5A.5.5,0,0,1,3,6.5Zm18,7v3a.5.5,0,0,1-.5.5H3.5a.5.5,0,0,1-.5-.5v-3a.5.5,0,0,1,.5-.5H5v2H8V10h2v2h3V10h7.5A.5.5,0,0,1,21,10.5ZM21,21H3V17.5a.5.5,0,0,1,.5-.5H5v2H8V17h2v2h3V17h7.5a.5.5,0,0,1,.5.5Z"/></svg>