<svg id="Isolation_Mode" data-name="Isolation Mode" xmlns="http://www.w3.org/2000/svg" viewBox="0 0 24 24"><title>53 psd file</title><path d="M5.947,5.72a.735.735,0,1,0,0-1.47H5.232l0,1.473Z"/><path d="M16.336,7.693c.855-.015,1.237-.866,1.237-1.7,0-.4-.091-1.713-1.263-1.713h-.7L15.632,7.7C15.894,7.7,16.172,7.7,16.336,7.693Z"/><path d="M21,0H3A3,3,0,0,0,0,3V24H17.471L24,17.471V3A3,3,0,0,0,21,0ZM14.359,3.035V3.027H16.31c1.5,0,2.513,1.191,2.513,2.963a2.68,2.68,0,0,1-2.464,2.953c-.379.007-1.363.01-1.363.01l-.625,0L14.36,3.868l0-.833ZM11.223,6.624c-.752-.277-1.43-.58-1.43-.58a1.572,1.572,0,0,1-.777-1.579,1.709,1.709,0,0,1,1.239-1.38,2.819,2.819,0,0,1,2.452.536l.479.4-.8.956-.476-.4a1.564,1.564,0,0,0-1.29-.3.457.457,0,0,0-.362.362.3.3,0,0,0,.13.3c.015,0,.614.263,1.272.506a1.826,1.826,0,0,1,1.408,2.014,2,2,0,0,1-2.04,1.552A2.867,2.867,0,0,1,8.894,8.1l-.42-.463L9.4,6.8l.42.463a1.642,1.642,0,0,0,1.2.5.78.78,0,0,0,.81-.522C11.9,6.9,11.382,6.683,11.223,6.624ZM3.98,3H5.947a1.985,1.985,0,1,1,0,3.97l-.717,0v2.1H3.98ZM21,15H15v6H3V11H21Z"/></svg>