<svg id="Layer_1" data-name="Layer 1" xmlns="http://www.w3.org/2000/svg" viewBox="0 0 24 24"><path d="M4,7A3.477,3.477,0,0,1,1.525,5.975L-.061,4.39,2.061,2.268,3.646,3.853a.5.5,0,0,0,.707,0L7.939.268l2.122,2.121L6.475,5.975A3.477,3.477,0,0,1,4,7ZM24,2H12V5H24ZM6.475,13.975l3.586-3.586L7.939,8.268,4.353,11.854a.5.5,0,0,1-.707,0L2.061,10.268-.061,12.39l1.586,1.585a3.5,3.5,0,0,0,4.95,0ZM24,10H12v3H24ZM6.475,21.975l3.586-3.586L7.939,16.268,4.353,19.854a.5.5,0,0,1-.707,0L2.061,18.268-.061,20.39l1.586,1.585a3.5,3.5,0,0,0,4.95,0ZM24,18H12v3H24Z"/></svg>