<svg id="Layer_1" data-name="Layer 1" xmlns="http://www.w3.org/2000/svg" viewBox="0 0 24 24"><path d="M12,0A12,12,0,1,0,24,12,12.013,12.013,0,0,0,12,0ZM10.642,20.886,9.076,16l-5.129-.007a8.878,8.878,0,0,1-.832-2.628l4.153-2.927-1.515-4.9A9.087,9.087,0,0,1,7.881,4.007L12,7l4.119-2.993a9.087,9.087,0,0,1,2.128,1.528l-1.515,4.9,4.153,2.927a8.894,8.894,0,0,1-.832,2.629L14.924,16l-1.566,4.886A8.939,8.939,0,0,1,12,21,8.939,8.939,0,0,1,10.642,20.886ZM14.924,16H9.076L7.268,10.438,12,7l4.732,3.438Z"/></svg>