<svg id="Layer_1" data-name="Layer 1" xmlns="http://www.w3.org/2000/svg" viewBox="0 0 24 24"><path d="M20,3.5V5h4V8H20v2h4v3H20v2h4v3H20v6H17V3.5A3.5,3.5,0,0,1,20.5,0H24V3H20.5A.5.5,0,0,0,20,3.5ZM16,19.25A4.736,4.736,0,0,1,8,22.7a4.735,4.735,0,1,1-5.41-7.652l3.7-6.7L4.193,4.55A9.46,9.46,0,0,1,3,0H6a6.367,6.367,0,0,0,.82,3.1L8,5.239,9.18,3.1A6.367,6.367,0,0,0,10,0h3a9.46,9.46,0,0,1-1.193,4.55L9.713,8.344l3.7,6.7A4.737,4.737,0,0,1,16,19.25Zm-8-7.8-1.818,3.3A4.733,4.733,0,0,1,8,15.8a4.733,4.733,0,0,1,1.818-1.059Zm-1.5,7.8A1.75,1.75,0,1,0,4.75,21,1.752,1.752,0,0,0,6.5,19.25Zm6.5,0A1.75,1.75,0,1,0,11.25,21,1.752,1.752,0,0,0,13,19.25Z"/></svg>