<svg id="Layer_1" data-name="Layer 1" xmlns="http://www.w3.org/2000/svg" viewBox="0 0 24 24"><path d="M24,14.562a6.445,6.445,0,0,0-.561-2.641L20.663,5.672A4.505,4.505,0,0,0,16.55,3h-1.8L14.243.97a1.281,1.281,0,0,0-2.486,0L11.25,3H3.5A3.5,3.5,0,0,0,0,6.5V20H3.05a2.577,2.577,0,0,0-.05.5,2.5,2.5,0,0,0,5,0,2.577,2.577,0,0,0-.05-.5h8.1a2.577,2.577,0,0,0-.05.5,2.5,2.5,0,0,0,5,0,2.577,2.577,0,0,0-.05-.5H24ZM21,17H3V6.5A.5.5,0,0,1,3.5,6H16v7h4.636l.062.14a3.478,3.478,0,0,1,.3,1.422ZM11,10h2v3H11v2H8V13H6V10H8V8h3Z"/></svg>