<svg id="Layer_1" data-name="Layer 1" xmlns="http://www.w3.org/2000/svg" viewBox="0 0 24 24"><path d="M21.5,0H18.194A3.477,3.477,0,0,0,15.72,1.025L8.712,8.033A7.9,7.9,0,0,0,5.834,8.3,8,8,0,1,0,15.7,18.166a7.9,7.9,0,0,0,.264-2.931L17,14.072V12h3V9h1.96l1.015-.72A3.477,3.477,0,0,0,24,5.806V2.5A2.5,2.5,0,0,0,21.5,0ZM21,5.806A.5.5,0,0,1,20.96,6H17V9H14v3.928l-1.321,1.359A4.945,4.945,0,0,1,13,16a5,5,0,1,1-5-5,4.947,4.947,0,0,1,1.678.31l8.163-8.164A.5.5,0,0,1,18.194,3H21ZM5,17.5A1.5,1.5,0,1,0,6.5,16,1.5,1.5,0,0,0,5,17.5Z"/></svg>