<svg id="Layer_1" data-name="Layer 1" xmlns="http://www.w3.org/2000/svg" viewBox="0 0 24 24"><path d="M13,0C6.729,0,2,4.084,2,9.5a8.737,8.737,0,0,0,.168,1.668h0a3.985,3.985,0,0,0-.853,4.368A6.6,6.6,0,0,0,0,19.5,4.373,4.373,0,0,0,4.5,24l.018-3A1.378,1.378,0,0,1,3,19.5a3.649,3.649,0,0,1,.565-1.95,14.443,14.443,0,0,0,4.033.463c.134,0,.259-.009.393-.011A12.765,12.765,0,0,0,13,19c6.271,0,11-4.084,11-9.5S19.271,0,13,0Zm0,16a10.253,10.253,0,0,1-2.581-.324,18.874,18.874,0,0,0-2.613-4.508,3.969,3.969,0,0,0-2.777-1.126C5.012,9.863,5,9.682,5,9.5,5,5.794,8.439,3,13,3s8,2.794,8,6.5S17.561,16,13,16Z"/></svg>