<svg id="Layer_1" data-name="Layer 1" xmlns="http://www.w3.org/2000/svg" viewBox="0 0 24 24"><path d="M23.122.879A2.981,2.981,0,0,0,20.563.032,28.427,28.427,0,0,0,5.3,7.617a7.862,7.862,0,0,0-.968,9.932L.064,21.814l2.122,2.122,4.268-4.269a7.614,7.614,0,0,0,4.285,1.326,8.325,8.325,0,0,0,6-2.588A28.731,28.731,0,0,0,23.969,3.416,2.957,2.957,0,0,0,23.122.879ZM6.006,13.42A4.9,4.9,0,0,1,7.423,9.734c.189-.189.384-.362.577-.541v4.686L6.512,15.367A4.856,4.856,0,0,1,6.006,13.42Zm8.566,2.911A5.131,5.131,0,0,1,8.623,17.5l4.5-4.5h4.061A22.074,22.074,0,0,1,14.572,16.331ZM18.836,10H16.121l1.94-1.939L15.939,5.939,11,10.879V6.853A26.735,26.735,0,0,1,21,2.99,26.5,26.5,0,0,1,18.836,10Z"/></svg>