<svg id="Layer_1" data-name="Layer 1" xmlns="http://www.w3.org/2000/svg" viewBox="0 0 24 24"><path d="M23.021.979A3.384,3.384,0,0,0,20.289,0c-1.8.176-8,1.087-12.35,5.44A28.486,28.486,0,0,0,.449,17.9l-.3.879,5.071,5.071.879-.294a28.5,28.5,0,0,0,12.457-7.491C22.914,11.707,23.825,5.508,24,3.712A3.388,3.388,0,0,0,23.021.979Zm-6.582,12.96A25.2,25.2,0,0,1,6.028,20.406l-.157-.156L17.561,8.561,15.439,6.439,3.75,18.129l-.156-.156A25.2,25.2,0,0,1,10.061,7.561c3.648-3.649,8.974-4.425,10.52-4.576A.389.389,0,0,1,20.9,3.1a.393.393,0,0,1,.116.319C20.864,4.965,20.088,10.291,16.439,13.939Z"/></svg>