<svg id="Layer_1" data-name="Layer 1" xmlns="http://www.w3.org/2000/svg" viewBox="0 0 24 24"><path d="M8.35,19H5.8A2.788,2.788,0,0,1,3,16.225a3.025,3.025,0,0,1,2.218-2.792l2.165-.557L6.048,11.084A5.083,5.083,0,0,1,5.03,8.03,4.935,4.935,0,0,1,10.091,3,5.18,5.18,0,0,1,15.22,7.465L15.373,8.6h0L17.982,6l-.006,0A8.2,8.2,0,0,0,10.091,0,7.96,7.96,0,0,0,2.03,8.03,8.045,8.045,0,0,0,2.72,11.3,5.953,5.953,0,0,0,0,16.225,5.792,5.792,0,0,0,5.8,22h4.9A6.027,6.027,0,0,1,8.35,19Z"/><path d="M21,18a2.97,2.97,0,0,0-1.5.416L17.023,17,19.5,15.584A2.97,2.97,0,0,0,21,16a3,3,0,1,0-3-3.014l-2.5,1.43A2.97,2.97,0,0,0,14,14a3,3,0,0,0,0,6,2.97,2.97,0,0,0,1.5-.416l2.5,1.43A3,3,0,1,0,21,18Z"/></svg>