<svg id="Layer_1" data-name="Layer 1" xmlns="http://www.w3.org/2000/svg" viewBox="0 0 24 24"><path d="M9,15h6v3H9Zm4.439-9.061L12,7.379l-1.439-1.44L8.439,8.061,9.879,9.5l-1.44,1.439,2.122,2.122L12,11.621l1.439,1.44,2.122-2.122L14.121,9.5l1.44-1.439ZM17,18h6V15H17Zm6.561-9.939L21.439,5.939,20,7.379l-1.439-1.44L16.439,8.061,17.879,9.5l-1.44,1.439,2.122,2.122L20,11.621l1.439,1.44,2.122-2.122L22.121,9.5ZM1,18H7V15H1ZM5.439,5.939,4,7.379,2.561,5.939.439,8.061,1.879,9.5.439,10.939l2.122,2.122L4,11.621l1.439,1.44,2.122-2.122L6.121,9.5l1.44-1.439Z"/></svg>