<svg id="Layer_1" data-name="Layer 1" xmlns="http://www.w3.org/2000/svg" viewBox="0 0 24 24"><path d="M9.768,23H5.8A5.792,5.792,0,0,1,0,17.225,5.953,5.953,0,0,1,2.72,12.3,8.04,8.04,0,0,1,10.091,1a8.2,8.2,0,0,1,7.885,6A8.176,8.176,0,0,1,24,14.85,8.076,8.076,0,0,1,23.7,17h-3.19A5.066,5.066,0,0,0,21,14.85a5.172,5.172,0,0,0-4.49-5.1L15.372,9.6l-.151-1.137A5.18,5.18,0,0,0,10.091,4,4.935,4.935,0,0,0,5.029,9.03a5.093,5.093,0,0,0,1.019,3.055l1.333,1.792-2.163.556A3.025,3.025,0,0,0,3,17.225,2.789,2.789,0,0,0,5.8,20h.937ZM17,20V13H14v7H11l3.75,3.707a1,1,0,0,0,1.414,0L20,20Z"/></svg>