<svg id="Layer_1" data-name="Layer 1" xmlns="http://www.w3.org/2000/svg" viewBox="0 0 24 24"><path d="M22,13a10.006,10.006,0,0,0-8.5-9.875V0h-3V3.125A9.982,9.982,0,0,0,4.323,19.4L1.906,21.974l2.188,2.052,2.477-2.64a9.938,9.938,0,0,0,10.858,0l2.477,2.64,2.188-2.052L19.677,19.4A9.956,9.956,0,0,0,22,13ZM5,13a7,7,0,1,1,7,7A7.008,7.008,0,0,1,5,13Zm8.5-1.945,2.408,1.461-1.592,2.543L10.5,12.715V8h3ZM2.511,5.674.017,4.011A15.17,15.17,0,0,1,4.456.056l1.6,2.53A12.026,12.026,0,0,0,2.511,5.674ZM17.946,2.586l1.6-2.53a15.17,15.17,0,0,1,4.439,3.955L21.489,5.674A12.026,12.026,0,0,0,17.946,2.586Z"/></svg>