<svg id="Layer_1" data-name="Layer 1" xmlns="http://www.w3.org/2000/svg" viewBox="0 0 24 24"><path d="M22.024,1.976C18.5-1.553,9.377-.177,4.6,4.6S-1.551,18.5,1.976,22.024A8.323,8.323,0,0,0,7.913,24,17.032,17.032,0,0,0,19.4,19.4C24.177,14.621,25.551,5.5,22.024,1.976Zm-4.746,15.3a14.162,14.162,0,0,1-8.489,3.677L3.046,15.212a14.167,14.167,0,0,1,3.676-8.49,14.169,14.169,0,0,1,8.491-3.676l5.741,5.741A14.167,14.167,0,0,1,17.278,17.278Zm1.039-7.595L16.2,11.8l-.939-.94L14.121,12l.94.939-2.122,2.122L12,14.121l-1.122,1.122.939.94L9.7,18.3l-4-4,2.121-2.121.94.939L9.879,12l-.94-.939,2.122-2.122.939.94,1.136-1.136L12.2,7.8l2.121-2.121Z"/></svg>