<svg id="Layer_1" data-name="Layer 1" xmlns="http://www.w3.org/2000/svg" viewBox="0 0 24 24"><path d="M12,0A12,12,0,1,0,24,12,12.013,12.013,0,0,0,12,0Zm8.617,9.415-2.871.861a6.007,6.007,0,0,0-4.022-4.022l.861-2.871A9.027,9.027,0,0,1,20.617,9.415ZM12,15.818,9.136,12,12,8.182,14.864,12ZM9.415,3.383l.861,2.871a6.007,6.007,0,0,0-4.022,4.022L3.383,9.415A9.031,9.031,0,0,1,9.415,3.383Zm-6.032,11.2,2.871-.861a6.009,6.009,0,0,0,4.022,4.022l-.861,2.871A9.031,9.031,0,0,1,3.383,14.585Zm11.2,6.032-.861-2.871a6.009,6.009,0,0,0,4.022-4.022l2.871.861A9.027,9.027,0,0,1,14.585,20.617Z"/></svg>