<svg id="Layer_1" data-name="Layer 1" xmlns="http://www.w3.org/2000/svg" viewBox="0 0 24 24"><path d="M20,11a4,4,0,0,0-4,4v5a4,4,0,0,0,8,0V15A4,4,0,0,0,20,11Zm1,9a1,1,0,0,1-2,0V15a1,1,0,0,1,2,0Z"/><path d="M10.5,15a4.445,4.445,0,0,0-1.5.276v-.193A1.084,1.084,0,0,1,10.083,14H13.5V11H10.083A4.088,4.088,0,0,0,6,15.083v3.875h.055A4.4,4.4,0,0,0,6,19.5,4.5,4.5,0,1,0,10.5,15Zm0,6A1.5,1.5,0,1,1,12,19.5,1.5,1.5,0,0,1,10.5,21Z"/><path d="M20.471,3.529A11.978,11.978,0,0,0,1.831,18.341l2.192-2.193A8.984,8.984,0,0,1,12,3a9.023,9.023,0,0,1,6.353,2.647L16,8h5.909A1.09,1.09,0,0,0,23,6.909V1Z"/></svg>