<svg id="Layer_1" data-name="Layer 1" xmlns="http://www.w3.org/2000/svg" viewBox="0 0 24 24"><path d="M13.5,4h-3V0h3Zm0,16h-3v4h3ZM4,10.5H0v3H4Zm20,0H20v3h4Zm-.874,6.232-3.458-2.009L18.16,17.316l3.458,2.01Zm-3.8-14.354L16.729.87,14.72,4.329l2.593,1.508Zm3.811,4.876-1.51-2.592L18.169,6.676l1.51,2.592ZM19.35,21.613l-2.014-3.456-2.592,1.51,2.014,3.456Zm-13.494-4.3L4.349,14.723.89,16.732,2.4,19.326ZM9.3,4.329,7.287.87,4.693,2.378,6.7,5.837ZM5.848,6.676,2.392,4.662.882,7.254,4.338,9.268ZM9.272,19.668,6.681,18.156,4.666,21.612l2.592,1.512Z"/></svg>