<svg id="Layer_1" data-name="Layer 1" xmlns="http://www.w3.org/2000/svg" viewBox="0 0 24 24"><path d="M12,0A12,12,0,1,0,24,12,12.013,12.013,0,0,0,12,0Zm8.036,16.029a15.779,15.779,0,0,1-9.464-.562,9.434,9.434,0,0,1,1.674-1.757,12.493,12.493,0,0,0,4.367.8,12.593,12.593,0,0,0,4.209-.734A8.9,8.9,0,0,1,20.036,16.029Zm-7.6-13.007a15.763,15.763,0,0,1,3.492,8.451,9.447,9.447,0,0,1-2.494-.527A12.543,12.543,0,0,0,9.918,3.253,8.984,8.984,0,0,1,12,3C12.146,3,12.288,3.015,12.432,3.022Zm8.434,7.485a9.467,9.467,0,0,1-1.952.714A18.772,18.772,0,0,0,16.962,4.5,9.009,9.009,0,0,1,20.866,10.507ZM6.917,4.58A9.515,9.515,0,0,1,8.2,5.836a18.711,18.711,0,0,0-5.18,5.8A8.993,8.993,0,0,1,6.917,4.58ZM4.211,16.488a15.7,15.7,0,0,1,5.57-8.1,9.488,9.488,0,0,1,.673,2.921,12.543,12.543,0,0,0-4.5,7.336A9.052,9.052,0,0,1,4.211,16.488ZM8.742,20.38a9.508,9.508,0,0,1,.441-2.252,18.788,18.788,0,0,0,7.022,1.39c.258,0,.516-.017.774-.027a8.931,8.931,0,0,1-8.237.889Z"/></svg>