<svg id="Layer_1" data-name="Layer 1" xmlns="http://www.w3.org/2000/svg" viewBox="0 0 24 24"><path d="M22.975,7.268,20.914,5.207l2.147-2.146L20.939.939,18.793,3.086,16.732,1.025a3.505,3.505,0,0,0-4.95,0L8.6,4.207l4.535,4.536L8.728,13.15,4.207,8.629,1.025,11.811a3.5,3.5,0,0,0,0,4.949l2.047,2.047L.939,20.939l2.122,2.122,2.132-2.133L7.268,23a3.5,3.5,0,0,0,4.95,0L15.4,19.821l-4.55-4.55,4.408-4.407L19.793,15.4l3.182-3.182a3.5,3.5,0,0,0,0-4.95ZM10.1,20.882a.5.5,0,0,1-.708,0L3.146,14.639a.5.5,0,0,1,0-.707l1.061-1.061,6.95,6.95ZM20.854,10.1l-1.061,1.061-6.95-6.95L13.9,3.146a.5.5,0,0,1,.708,0L20.854,9.39a.5.5,0,0,1,0,.706Z"/></svg>