<svg id="Layer_1" data-name="Layer 1" xmlns="http://www.w3.org/2000/svg" viewBox="0 0 24 24"><path d="M17.954,5.954c-2.693,0-4.726,1.838-5.954,3.364C10.772,7.792,8.739,5.954,6.046,5.954a6.046,6.046,0,0,0,0,12.092c2.693,0,4.726-1.838,5.954-3.364,1.228,1.526,3.261,3.364,5.954,3.364a6.046,6.046,0,0,0,0-12.092ZM6.046,15.046a3.046,3.046,0,0,1,0-6.092c1.816,0,3.407,1.821,4.213,3.046C9.453,13.225,7.862,15.046,6.046,15.046Zm11.908,0c-1.816,0-3.407-1.821-4.213-3.046.806-1.225,2.4-3.046,4.213-3.046a3.046,3.046,0,0,1,0,6.092Z"/></svg>