<svg id="Layer_1" data-name="Layer 1" xmlns="http://www.w3.org/2000/svg" viewBox="0 0 24 24"><path d="M12,0A12,12,0,1,0,24,12,12.013,12.013,0,0,0,12,0ZM3,12A8.938,8.938,0,0,1,4.688,6.773,7.085,7.085,0,0,1,5.972,8.346l-1.03.307L5.8,11.528l1.15-.342A7.087,7.087,0,0,1,7,12a7.087,7.087,0,0,1-.05.814L5.8,12.472l-.858,2.875,1.03.307a7.085,7.085,0,0,1-1.284,1.573A8.938,8.938,0,0,1,3,12Zm3.81,7.34a10.066,10.066,0,0,0,2.1-2.809l1.517.452.857-2.875-1.445-.431A10.039,10.039,0,0,0,10,12a10.039,10.039,0,0,0-.157-1.677l1.445-.431-.857-2.875-1.517.452A10.066,10.066,0,0,0,6.81,4.66a8.943,8.943,0,0,1,10.38,0,10.066,10.066,0,0,0-2.1,2.809l-1.517-.452-.857,2.875,1.445.431A10.039,10.039,0,0,0,14,12a10.039,10.039,0,0,0,.157,1.677l-1.445.431.857,2.875,1.517-.452a10.066,10.066,0,0,0,2.1,2.809,8.943,8.943,0,0,1-10.38,0Zm12.5-2.113a7.085,7.085,0,0,1-1.284-1.573l1.03-.307L18.2,12.472l-1.15.342a6.651,6.651,0,0,1,0-1.628l1.15.342.858-2.875-1.03-.307a7.085,7.085,0,0,1,1.284-1.573,8.937,8.937,0,0,1,0,10.454Z"/></svg>