<svg id="Layer_1" data-name="Layer 1" xmlns="http://www.w3.org/2000/svg" viewBox="0 0 24 24"><path d="M23.268.733A2.489,2.489,0,0,0,20.961.06L16.989,1.354,5.422,12.922a15.07,15.07,0,0,0-4.21-1.407L.783,14.484a12.3,12.3,0,0,1,4.668,1.944L3.207,18.672,2.152,17.617.031,19.738l4.24,4.241,2.121-2.121L5.328,20.793,7.571,18.55a12.286,12.286,0,0,1,1.945,4.667l2.969-.429a15.058,15.058,0,0,0-1.407-4.209L22.646,7.012l1.295-3.973A2.491,2.491,0,0,0,23.268.733ZM20.018,5.4,9.4,16.015c-.211-.253-.432-.5-.673-.743s-.489-.461-.741-.672L18.6,3.981l2.1-.689Z"/></svg>