<svg id="Layer_1" data-name="Layer 1" xmlns="http://www.w3.org/2000/svg" viewBox="0 0 24 24"><path d="M23.585,4.41A3.334,3.334,0,0,0,21.591,2.8L12.781.135a3.366,3.366,0,0,0-4.17,2.278L8.134,4H3.5A3.5,3.5,0,0,0,0,7.5V24H16V21.667l3.234,1.2,4.63-15.9A3.338,3.338,0,0,0,23.585,4.41ZM13,21H3V7.5A.5.5,0,0,1,3.5,7h9a.5.5,0,0,1,.5.5ZM20.984,6.132l-3.728,12.8L16,18.467V7.5A3.5,3.5,0,0,0,12.5,4H11.267l.221-.736a.365.365,0,0,1,.175-.219.345.345,0,0,1,.264-.034l8.809,2.666a.363.363,0,0,1,.219.176A.353.353,0,0,1,20.984,6.132ZM12,13c0,2.333-4,5-4,5s-4-2.667-4-5a2,2,0,0,1,4,0,2,2,0,0,1,4,0Z"/></svg>