<svg id="Layer_1" data-name="Layer 1" xmlns="http://www.w3.org/2000/svg" viewBox="0 0 24 24"><path d="M24,12A12,12,0,0,1,0,12a12.169,12.169,0,0,1,.121-1.709l2.97.424A9.157,9.157,0,0,0,3,12a9,9,0,1,0,9-9,9.157,9.157,0,0,0-1.285.091L10.291.121A12.169,12.169,0,0,1,12,0,12.013,12.013,0,0,1,24,12ZM8.495,3.708,7.325.945A12,12,0,0,0,4.671,2.5L6.505,4.872A8.987,8.987,0,0,1,8.495,3.708ZM4.873,6.5,2.5,4.669A11.987,11.987,0,0,0,.946,7.324l2.762,1.17A9,9,0,0,1,4.873,6.5ZM10.5,6v4.5H7v3h3.69a1.991,1.991,0,0,0,2.81-2.81V6Z"/></svg>