<svg id="Layer_1" data-name="Layer 1" xmlns="http://www.w3.org/2000/svg" viewBox="0 0 24 24"><path d="M13.5,18h-3V15h3Zm-.543,5.556C15.078,22.7,22,19.345,22,11.975V5.813A3.382,3.382,0,0,0,19.679,2.6L12,.055,4.321,2.6A3.382,3.382,0,0,0,2,5.813v6.162c0,6.515,6.851,10.449,8.953,11.5l.983.489ZM18.734,5.448A.38.38,0,0,1,19,5.813v6.162c0,5.26-5.034,7.9-6.932,8.7-1.926-1-7.068-4.1-7.068-8.7V5.813a.38.38,0,0,1,.266-.365L12,3.215Zm-5.055,7.183A4,4,0,1,0,9.552,5.837,3.973,3.973,0,0,0,8,9h3a1,1,0,0,1,.389-.792,1.022,1.022,0,0,1,.9-.17.976.976,0,0,1,.671.672,1,1,0,0,1-.543,1.2,3.415,3.415,0,0,0-1.919,3.12h3A.452.452,0,0,1,13.679,12.631Z"/></svg>