<svg id="Layer_1" data-name="Layer 1" xmlns="http://www.w3.org/2000/svg" viewBox="0 0 24 24"><path d="M24,14.85A8.176,8.176,0,0,0,17.976,7,8.2,8.2,0,0,0,10.091,1a8.065,8.065,0,0,0-5.15,1.82L2.186.064.064,2.186l21.75,21.75,2.122-2.122-1.806-1.8A8.067,8.067,0,0,0,24,14.85ZM10.091,4a5.181,5.181,0,0,1,5.13,4.465L15.372,9.6l1.138.15A5.172,5.172,0,0,1,21,14.85a5.054,5.054,0,0,1-1,3.024L7.073,4.951A5.085,5.085,0,0,1,10.091,4Zm3.564,16,2.96,2.96c-.263.025-.528.04-.8.04H5.8A5.792,5.792,0,0,1,0,17.225,5.953,5.953,0,0,1,2.72,12.3,8.045,8.045,0,0,1,2.03,9.03c0-.211.015-.418.03-.624L6.951,13.3l.432.58-2.165.557A3.025,3.025,0,0,0,3,17.225,2.788,2.788,0,0,0,5.8,20Z"/></svg>