<svg id="Layer_1" data-name="Layer 1" xmlns="http://www.w3.org/2000/svg" viewBox="0 0 24 24"><path d="M24,3.5A3.5,3.5,0,0,0,20.5,0h-10A3.5,3.5,0,0,0,7,3.5V5H6.5A3.5,3.5,0,0,0,3,8.5v1.551A3.494,3.494,0,0,0,0,13.5V24H16V19h4V14h4ZM3.5,13h9a.507.507,0,0,1,.5.5V16l-2,2L9,16,3,20.875V13.5A.5.5,0,0,1,3.5,13ZM17,16H16V13.5A3.5,3.5,0,0,0,12.5,10H6V8.5A.5.5,0,0,1,6.5,8h10a.507.507,0,0,1,.5.5Zm4-5H20V8.5A3.5,3.5,0,0,0,16.5,5H10V3.5a.5.5,0,0,1,.5-.5h10a.507.507,0,0,1,.5.5ZM4,15.5A1.5,1.5,0,1,1,5.5,17,1.5,1.5,0,0,1,4,15.5Z"/></svg>