<svg id="Layer_1" data-name="Layer 1" xmlns="http://www.w3.org/2000/svg" viewBox="0 0 24 24"><path d="M23.365,6.134,20,1.416A3.417,3.417,0,0,0,17.221-.012H6.779A3.417,3.417,0,0,0,4.005,1.416L.634,6.135A3.434,3.434,0,0,0,.743,10.24L12,24.11,23.271,10.222A3.427,3.427,0,0,0,23.365,6.134ZM3.076,7.878,6.446,3.16a.412.412,0,0,1,.333-.172H9.7L8.275,8.5h7.45L14.3,2.988h2.923a.412.412,0,0,1,.333.172l3.369,4.717a.407.407,0,0,1,.005.473l-.122.15H15.725L12,19.348l0,0,0,0L8.275,8.5H3.194l-.107-.132A.411.411,0,0,1,3.076,7.878Z"/></svg>