<svg id="Layer_1" data-name="Layer 1" xmlns="http://www.w3.org/2000/svg" viewBox="0 0 24 24"><path d="M22.833,1.167a4.079,4.079,0,0,0-5.634,0L7.35,11.017C7.235,11.01,7.121,11,7.005,11a5.956,5.956,0,0,0-4.238,1.755C.716,14.806.207,21.048.125,22.279L.013,23.987l1.708-.112c1.23-.082,7.472-.59,9.523-2.641a5.961,5.961,0,0,0,1.722-4.566L22.833,6.8A3.986,3.986,0,0,0,22.833,1.167ZM9.123,19.112c-.678.678-3.276,1.288-5.836,1.6.314-2.56.923-5.158,1.6-5.836h0a2.995,2.995,0,1,1,4.235,4.235ZM20.712,4.679l-8.843,8.843a5.938,5.938,0,0,0-.625-.767,6.208,6.208,0,0,0-.756-.634L19.32,3.289a1.008,1.008,0,0,1,1.392,0A.984.984,0,0,1,20.712,4.679Z"/></svg>