<svg id="Layer_1" data-name="Layer 1" xmlns="http://www.w3.org/2000/svg" viewBox="0 0 24 24"><path d="M1.783,5.407.217,2.849,4.717.1,6.283,2.653Zm19.6,12.305-2.777,4.5,2.553,1.576,2.777-4.5Zm-.476-2.926-4.691,7.607a3.273,3.273,0,0,1-2.42,1.58,3.456,3.456,0,0,1-.429.027,3.291,3.291,0,0,1-2.337-.972L9.945,21.945a4.172,4.172,0,0,1-5.889-5.891L.972,12.968a3.318,3.318,0,0,1,.513-5.11L8.877,3.336a8.487,8.487,0,0,1,9.461.205l1.976-1.977,2.122,2.122L20.46,5.661A8.592,8.592,0,0,1,20.905,14.786Zm-3.52-8.145a5.532,5.532,0,0,0-6.92-.76L3.1,10.389a.3.3,0,0,0-.1.2.31.31,0,0,0,.091.255l10.056,10.06a.3.3,0,0,0,.264.09.3.3,0,0,0,.231-.152l4.679-7.584A5.563,5.563,0,0,0,17.385,6.641Z"/></svg>