<svg id="Layer_1" data-name="Layer 1" xmlns="http://www.w3.org/2000/svg" viewBox="0 0 24 24"><path d="M20.485,3.515a11.994,11.994,0,1,0,0,16.97A12.013,12.013,0,0,0,20.485,3.515Zm.276,6.477a7.088,7.088,0,0,1-6.752-6.753,8.924,8.924,0,0,1,6.752,6.753ZM3.239,14.009a7.086,7.086,0,0,1,6.752,6.752,8.924,8.924,0,0,1-6.752-6.752Zm15.125,4.355a8.948,8.948,0,0,1-5.38,2.573,10.042,10.042,0,0,0-9.921-9.922,8.959,8.959,0,0,1,7.953-7.952,10.058,10.058,0,0,0,9.92,9.931A8.948,8.948,0,0,1,18.364,18.364Z"/></svg>