<svg id="Layer_1" data-name="Layer 1" xmlns="http://www.w3.org/2000/svg" viewBox="0 0 24 24"><path d="M11.273,24A3.477,3.477,0,0,1,8.8,22.975L6.213,20.389l2.121-2.121,2.586,2.586a.5.5,0,0,0,.706,0L16.74,15.74l2.121,2.121-5.113,5.114A3.477,3.477,0,0,1,11.273,24ZM1.885,20.475l2.129-2.129A2.753,2.753,0,0,1,3,16.225a3.025,3.025,0,0,1,2.218-2.792l2.165-.557L6.048,11.084A5.083,5.083,0,0,1,5.03,8.03,4.935,4.935,0,0,1,10.091,3,5.18,5.18,0,0,1,15.22,7.465L15.373,8.6l1.137.15A5.171,5.171,0,0,1,21,13.85a5.059,5.059,0,0,1-.288,1.619L23,17.754a8.066,8.066,0,0,0,1-3.9A8.178,8.178,0,0,0,17.976,6,8.2,8.2,0,0,0,10.091,0,7.96,7.96,0,0,0,2.03,8.03,8.045,8.045,0,0,0,2.72,11.3,5.953,5.953,0,0,0,0,16.225,5.748,5.748,0,0,0,1.885,20.475Z"/></svg>