<svg id="Layer_1" data-name="Layer 1" xmlns="http://www.w3.org/2000/svg" viewBox="0 0 24 24"><path d="M12,10.5A1.5,1.5,0,1,1,13.5,12,1.5,1.5,0,0,1,12,10.5ZM16.5,9A1.5,1.5,0,1,0,15,7.5,1.5,1.5,0,0,0,16.5,9Zm-6,6A1.5,1.5,0,1,0,9,13.5,1.5,1.5,0,0,0,10.5,15ZM23.841,3.553l-.075.209C22.278,7.888,20.86,11.813,17.943,15.3A13.989,13.989,0,0,1,13.171,24H9V20.667L7.227,18.894,5.2,20.92,3.08,18.8l2.026-2.027L3.333,15H0V10.829A13.211,13.211,0,0,1,8.766,6c3.47-2.88,7.372-4.288,11.472-5.766l.209-.075a2.652,2.652,0,0,1,3.394,3.394Zm-3.073-.321C16.412,4.805,12.635,6.24,9.4,9.472a24.084,24.084,0,0,0-3.16,4.2l4.088,4.088a24.242,24.242,0,0,0,4.2-3.159C17.76,11.365,19.2,7.588,20.768,3.232Z"/></svg>