<svg id="Layer_1" data-name="Layer 1" xmlns="http://www.w3.org/2000/svg" viewBox="0 0 24 24"><path d="M12,0A12,12,0,1,0,24,12,12.013,12.013,0,0,0,12,0ZM10.668,15.453,12,14.121l5.207,5.207a8.946,8.946,0,0,1-4.169,1.607A11.9,11.9,0,0,0,10.668,15.453Zm2.664-6.906L12,9.879,6.794,4.672a8.939,8.939,0,0,1,4.167-1.607A11.916,11.916,0,0,0,13.332,8.547ZM9.879,12,8.547,13.332a11.916,11.916,0,0,0-5.482-2.371A8.934,8.934,0,0,1,4.672,6.794Zm4.242,0,1.332-1.332a11.916,11.916,0,0,0,5.482,2.371,8.942,8.942,0,0,1-1.607,4.168Zm6.636-2.042a8.985,8.985,0,0,1-6.715-6.716A9.021,9.021,0,0,1,20.757,9.958ZM3.243,14.042a8.986,8.986,0,0,1,6.715,6.715A9.018,9.018,0,0,1,3.243,14.042Z"/></svg>