<svg id="Layer_1" data-name="Layer 1" xmlns="http://www.w3.org/2000/svg" viewBox="0 0 24 24"><path d="M21.521,17.111,20.46,16.05a7,7,0,0,0-9.9,0L9.5,17.111,7.379,14.99l1.06-1.061a10,10,0,0,1,14.142,0l1.061,1.061Zm-1.415,1.413-1.06-1.06a5.008,5.008,0,0,0-7.071,0l-1.061,1.06,2.121,2.122,1.061-1.06a2,2,0,0,1,2.829,0l1.06,1.06ZM14.01,22.5a1.5,1.5,0,1,0,1.5-1.5A1.5,1.5,0,0,0,14.01,22.5ZM9.5,21.328h0L7.172,19H5.8A2.789,2.789,0,0,1,3,16.225a3.025,3.025,0,0,1,2.218-2.792l2.163-.556L6.048,11.085A5.093,5.093,0,0,1,5.029,8.03,4.935,4.935,0,0,1,10.091,3a5.18,5.18,0,0,1,5.13,4.465l.07.529c.074,0,.145-.015.219-.015a12.892,12.892,0,0,1,7.8,2.614A8.207,8.207,0,0,0,17.976,6,8.2,8.2,0,0,0,10.091,0,7.96,7.96,0,0,0,2.029,8.03,8.036,8.036,0,0,0,2.72,11.3,5.953,5.953,0,0,0,0,16.225,5.792,5.792,0,0,0,5.8,22h4.376Z"/></svg>