<svg id="Layer_1" data-name="Layer 1" xmlns="http://www.w3.org/2000/svg" viewBox="0 0 24 24"><path d="M7.5,13A4.5,4.5,0,1,1,12,8.5,4.505,4.505,0,0,1,7.5,13Zm0-6A1.5,1.5,0,1,0,9,8.5,1.5,1.5,0,0,0,7.5,7ZM15,20.5A5.506,5.506,0,0,0,9.5,15h-4A5.506,5.506,0,0,0,0,20.5V24H3V20.5A2.5,2.5,0,0,1,5.5,18h4A2.5,2.5,0,0,1,12,20.5V24h3ZM17.5,9A4.5,4.5,0,1,1,22,4.5,4.505,4.505,0,0,1,17.5,9Zm0-6A1.5,1.5,0,1,0,19,4.5,1.5,1.5,0,0,0,17.5,3ZM24,16.5A5.506,5.506,0,0,0,18.5,11H15v3h3.5A2.5,2.5,0,0,1,21,16.5V20h3Z"/></svg>